<svg viewBox="0 0 50 50" fill="none" xmlns="http://www.w3.org/2000/svg">
<path d="M8.13717 16.918C9.25364 16.4946 10.4699 16.3227 11.6513 16.4357C15.1952 16.7554 18.156 19.6196 18.5398 23.0987C18.784 25.2934 18.111 27.3994 16.6405 29.0235C15.1801 30.6275 13.0966 31.5479 10.9234 31.5479C9.95643 31.5479 9.01938 31.3756 8.13717 31.0313C11.1628 26.8288 11.1628 21.1204 8.13717 16.918ZM24.9896 22.395C24.2566 15.8503 18.8986 10.6586 12.2443 10.0582C8.07746 9.684 3.95526 11.126 0.979743 14.0294C-0.3066 15.2794 -0.316466 17.3558 0.964593 18.6551L2.22552 19.8952C4.50343 22.1441 4.50343 25.8004 2.22552 28.0492L0.934784 29.3188C-0.326438 30.5931 -0.311385 32.66 0.979743 33.9198C3.64623 36.5182 7.18019 37.9498 10.9234 37.9498C14.9458 37.9498 18.784 36.2523 21.4656 33.2899C24.1473 30.3421 25.4331 26.371 24.9896 22.395Z" />
<path d="M39.0635 16.4037C40.0156 16.4037 40.9726 16.5807 41.8596 16.9203C40.3693 18.9823 39.5818 21.4131 39.5818 23.9721C39.5818 26.5308 40.3693 28.9667 41.8596 31.0336C40.9825 31.378 40.0455 31.5501 39.0785 31.5501C36.9053 31.5501 34.8219 30.63 33.3614 29.0259C31.8857 27.392 31.2132 25.2907 31.4573 23.1012C31.846 19.622 34.8119 16.7579 38.3506 16.4382C38.585 16.4134 38.824 16.4037 39.0635 16.4037ZM47.7761 28.0513C46.6747 26.964 46.0666 25.5122 46.0666 23.9721C46.0666 22.4317 46.6747 20.985 47.7761 19.8974L49.0671 18.6278C50.3284 17.3484 50.3081 15.2865 49.0222 14.0319C46.0415 11.1284 41.9642 9.6767 37.7525 10.0607C31.1033 10.6611 25.7449 15.8523 25.0075 22.3975C24.5636 26.3686 25.8499 30.3398 28.5315 33.2924C31.2131 36.2497 35.0561 37.9475 39.0785 37.9475C42.8166 37.9475 46.3506 36.5154 49.0222 33.9171C50.3133 32.6625 50.3181 30.5856 49.0321 29.2914L47.7761 28.0513Z" class="green" fill="#86C440"/>
<path d="M46.48 35.6048L40.7679 28.5876C40.2842 27.9283 39.5767 27.4901 38.7641 27.3574C37.9268 27.2246 37.1393 27.4163 36.4814 27.884C35.1105 28.8582 34.7866 30.7529 35.7786 32.1257L41.4954 39.1429C41.9739 39.7975 42.6767 40.2353 43.4842 40.3684C43.6588 40.3979 43.8282 40.4124 43.9976 40.4124C44.6308 40.4124 45.2489 40.2157 45.7771 39.8466C47.153 38.8723 47.472 36.9777 46.48 35.6048Z" fill="#86C440" class="green"/>
<style>
    path { fill: #222E76; }
    .green {fill: #86C440;}
    @media (prefers-color-scheme: dark) {
      path { fill: #FFFFFF; }
      .green {fill: #86C440;}
    }
  </style>
</svg>
